<?xml version="1.0" encoding="iso-8859-1"?>
<!-- Generator: Adobe Illustrator 18.0.0, SVG Export Plug-In . SVG Version: 6.00 Build 0)  -->
<!DOCTYPE svg PUBLIC "-//W3C//DTD SVG 1.1//EN" "http://www.w3.org/Graphics/SVG/1.1/DTD/svg11.dtd">
<svg version="1.1" id="Capa_1" xmlns="http://www.w3.org/2000/svg" xmlns:xlink="http://www.w3.org/1999/xlink" x="50px" y="50px"
	 viewBox="0 0 492.735 492.735" style=" width: 50px !important;enable-background:new 0 0 492.735 492.735;" xml:space="preserve">
<g id="XMLID_154_">
	<path id="XMLID_155_" d="M57.907,374.126l14.122,57.06c11.391,40.216,87.428,61.55,174.339,61.55
		c86.003,0,163.958-21.779,174.347-61.55l14.121-57.067c-60.164,25.831-124.268,39.038-188.476,39.038
		C182.168,413.156,118.063,399.949,57.907,374.126z"/>
	<path id="XMLID_156_" d="M302.034,163.472c-13.398-1.439-23.571-12.743-23.571-26.213v-0.039c0-17.06,5.191-33.545,14.911-47.563
		c6.399-9.226,10.148-20.426,10.148-32.501C303.523,25.584,277.939,0,246.368,0c-31.563,0-57.156,25.584-57.156,57.155
		c0,12.075,3.75,23.275,10.15,32.501c9.687,13.964,14.909,30.568,14.909,47.563v0.039c0,13.502-10.148,24.766-23.57,26.213
		c-86.003,9.283-162.327,39.986-162.327,89.587c0,6.877,20.696,85.366,20.696,85.366c124.484,60.903,270.119,60.912,394.602-0.008
		c0,0,20.688-78.482,20.688-85.358C464.361,203.458,388.038,172.755,302.034,163.472z M246.368,31.077
		c14.63,0,26.492,11.86,26.492,26.492c0,14.63-11.862,26.492-26.492,26.492c-14.631,0-26.492-11.862-26.492-26.492
		C219.877,42.938,231.737,31.077,246.368,31.077z M246.368,191.963c112.176,0,181.057,35.59,181.057,61.096
		c0,25.521-68.88,61.103-181.057,61.103c-112.177,0-181.058-35.582-181.058-61.103C65.31,227.553,134.191,191.963,246.368,191.963z"
		/>
</g>
<g>
</g>
<g>
</g>
<g>
</g>
<g>
</g>
<g>
</g>
<g>
</g>
<g>
</g>
<g>
</g>
<g>
</g>
<g>
</g>
<g>
</g>
<g>
</g>
<g>
</g>
<g>
</g>
<g>
</g>
</svg>
